<svg id="Layer_1" data-name="Layer 1" xmlns="http://www.w3.org/2000/svg" viewBox="0 0 100.64 75.36"><defs><style>.cls-1{fill:#62d1ba;isolation:isolate;}.cls-2{fill:#fff;}</style></defs><rect class="cls-1" x="2" y="2" width="96.64" height="71.36" rx="17.78"/><path class="cls-2" d="M80.86,75.36H19.78A19.8,19.8,0,0,1,0,55.58V19.78A19.8,19.8,0,0,1,19.78,0H80.86a19.8,19.8,0,0,1,19.78,19.78v35.8A19.8,19.8,0,0,1,80.86,75.36ZM19.78,4A15.8,15.8,0,0,0,4,19.78v35.8A15.8,15.8,0,0,0,19.78,71.36H80.86A15.8,15.8,0,0,0,96.64,55.58V19.78A15.8,15.8,0,0,0,80.86,4Z"/><path class="cls-2" d="M38.22,23.94v28.2A2.22,2.22,0,0,0,41.6,54l22.92-14.1a2.23,2.23,0,0,0,0-3.78L41.6,22.05A2.22,2.22,0,0,0,38.22,23.94Z"/></svg>