<svg id="Layer_1" data-name="Layer 1" xmlns="http://www.w3.org/2000/svg" viewBox="0 0 71.6 71.6"><path d="M57,0H14.6A14.68,14.68,0,0,0,0,14.6V57A14.62,14.62,0,0,0,14.6,71.6H57A14.62,14.62,0,0,0,71.6,57V14.6A14.55,14.55,0,0,0,57,0ZM67.7,57A10.67,10.67,0,0,1,57.1,67.6H14.6A10.61,10.61,0,0,1,4,57V14.6A10.67,10.67,0,0,1,14.6,4H57A10.61,10.61,0,0,1,67.6,14.6V57Z"/><path d="M29.6,24.6V31H23.3v7.8h6.3V58.6H39V38.8h6.3L47.1,31H39V25.7c0-2.2,1.2-4.5,4.4-4.5h3.8V13H41.5C33.5,13,29.6,17.8,29.6,24.6Z"/></svg>