<svg id="Layer_1" data-name="Layer 1" xmlns="http://www.w3.org/2000/svg" viewBox="0 0 71.65 71.65"><path d="M14.51,26a16.53,16.53,0,0,1,1.79-5.64c2.42-3.95,6.21-5.46,10.57-5.57,5.95-.15,11.92-.14,17.87,0,4,.1,7.64,1.43,10.1,4.93a13.18,13.18,0,0,1,2.21,7.51c.09,5.72.13,11.45,0,17.17-.11,4.6-1.71,8.6-6,10.9a13.78,13.78,0,0,1-6.41,1.58c-5.88.06-11.76.12-17.63,0-4.41-.1-8.24-1.59-10.69-5.59a16.41,16.41,0,0,1-1.79-5.63Zm21.33-7.18c-2.92,0-5.84-.05-8.76,0C22.52,19,19.72,21.1,18.89,25a12.18,12.18,0,0,0-.31,2.55c0,5.53-.11,11.06,0,16.58s2.89,8.44,8.2,8.64c6,.22,12,.2,18,0,4.42-.14,7-2.27,7.89-6.09A10.44,10.44,0,0,0,53,44.6c0-6.3.38-12.61-.19-18.9A7.12,7.12,0,0,0,46.23,19c-3.46-.45-6.93-.12-10.39-.19Z"/><path d="M46.82,35.91a11,11,0,1,1-11-11A11,11,0,0,1,46.82,35.91Zm-4.09-.06a7,7,0,1,0-7.14,6.86h.14A6.93,6.93,0,0,0,42.73,35.85Z"/><path d="M47.12,22a2.58,2.58,0,1,1-2.67,2.63A2.67,2.67,0,0,1,47.12,22Z"/><path d="M57,71.65H14.61A14.62,14.62,0,0,1,0,57V14.61A14.62,14.62,0,0,1,14.61,0H57A14.62,14.62,0,0,1,71.65,14.61V57A14.62,14.62,0,0,1,57,71.65ZM14.61,4A10.62,10.62,0,0,0,4,14.61V57A10.62,10.62,0,0,0,14.61,67.65H57A10.62,10.62,0,0,0,67.65,57V14.61A10.62,10.62,0,0,0,57,4Z"/></svg>