<svg id="Layer_1" data-name="Layer 1" xmlns="http://www.w3.org/2000/svg" viewBox="0 0 100.33 32.38"><path d="M24.08,6.56a2.23,2.23,0,0,0,.85-.14,2.43,2.43,0,0,0,1.49-3.11c-.09-1.8,0-3.37-2.54-3.31s-2.14,1.77-2.17,3.39S21.57,6.83,24.08,6.56Z" style="fill:#282425"/><path d="M18.67,8.47c0-1.29.42-3.24-1.76-3.24-1.68,0-2.79.88-3.17,2.88a30.81,30.81,0,0,1-3.68,10.73C8.47,15.18,7.17,12,5.68,8.84,5,7.4,4.79,5.17,2.16,5.81-.2,6.38,0,8.27,0,10c.22,6.31.5,12.61.63,18.92,0,1.61.52,2.38,2.21,2.39S5,30.3,5,28.81V20.4c3.83,1.07,1.1,7.25,5.66,6.87,3.67-.28,1.8-4.83,4.13-7V32.36h3.93c.28-1,.92-2.1.8-3.1C18.62,22.35,18.9,15.4,18.67,8.47Z" style="fill:#282425"/><path d="M60,8c-.09-1.46-.37-2.47-2.2-2.34a2,2,0,0,0-.42,0,2.21,2.21,0,0,0-1.91,2.47,58.32,58.32,0,0,0,.67,6.6c.38,2.23-.95,2.54-2.73,2.87-2.42.45-2.22-1-2.31-2.49-.16-2.64-.4-5.32-.6-8-.09-1.19.38-2.76-1.77-2.6-1.44.1-2.58.6-2.44,2.29.62,7.42-.5,14.88.62,22.29.19,1.37.25,2.51,2.19,2.23a2.12,2.12,0,0,0,.44-.05,2.16,2.16,0,0,0,1.66-2.58C51.06,27,51,25.26,51,23.52,51,22,49.93,20,53.14,19.83c2.68-.11,3,1.06,3.6,3.17.82,3.1-1.19,6.53,1.31,9.36l1,0C61,31,61.43,29,61.31,27,60.92,20.65,60.41,14.34,60,8Z" style="fill:#282425"/><path d="M37.8,16.28c-1.8-.05-3.9.35-4-2.24-.1-2.42-1.61-5.34.73-7.1a3.41,3.41,0,0,1,1.06-.57,3.28,3.28,0,0,1,4.13,2.1c.46,1,1.6.82,2.58.44s1.76-1,1.58-2.07a2.54,2.54,0,0,0-1.77-2.06c-2.75-1.07-5.47-.66-8.19,0C29.32,5.9,28.7,7.7,29.5,15.06c.42,4,3.31,3.38,5.78,3.24,4.07-.24,5.25,1.7,5.07,5.18a33.31,33.31,0,0,0,.11,4.24c.16,2.16-1.09,2.71-3,2.75s-2.68-.73-2.53-2.54c.11-1.34,1.43-3.34-1.57-3.34-2.63,0-2.43,1.94-2.71,3.68-.26,1.52.49,2.74.85,4.09l8.87,0C45.26,30.69,44.81,27,44.58,23,44.24,17.28,43.73,16.46,37.8,16.28Z" style="fill:#282425"/><path d="M77.07,21.32c-4.42-5.56-1.73-10.39,1.16-15.39.48-.83,2-1.33.91-3.16-7.51,1.91-6.65,10.35-11.93,14.57-.29-3.83-.4-7.24-.87-10.6-.18-1.26.72-3.61-1.94-3.5C62,3.34,61.9,5.18,62,7.05c.38,6.93,1.38,13.8,1.11,20.8,0,1.22-1.3,3.45,1.64,3.52,2.66.07,2.87-2.06,2.76-3.64-.25-3.37,1.29-5.71,4-8,1.34,3.14,2.48,5.91,3.7,8.65.78,1.67.87,4.24,3.85,3s.58-3.26.23-4.81A13.2,13.2,0,0,0,77.07,21.32Z" style="fill:#282425"/><path d="M27.59,24.67c-.34-4.46-.59-8.67-1-12.94-.11-1.2.89-3.08-1.66-3.15-2.72-.07-2.67,1.64-2.56,3.51.23,4.11.2,8.24.63,12.32C23.23,26.79,22,31,25,31.09,30,31.26,26.52,26.67,27.59,24.67Z" style="fill:#282425"/><path d="M98.18,10.54c-.46-2,0-4.18-2.38-5.32C90.39,2.6,81.72,7.46,81.64,13.3c-.07,5.05.18,10.16.27,15.16,0,1.32,0,2.79,1.92,2.57,1.44-.16,2.8-.73,2.69-2.68-.12-2.2,0-4.42,0-6.63,0-1-.24-2.62,1.55-2.26,2.88.56,7.52-.69,6.15,5a12.48,12.48,0,0,0,.21,3.76c.12.91-1,2.35,1.12,2.35,1.39,0,2.75-.44,2.86-2,.14-2-.11-4.12,0-6.12.07-1.37-.84-3.45,1.92-3.45V17.12C96.78,15.82,98.69,12.77,98.18,10.54Zm-7.74,6.71c-3-.18-5-.39-4.82-3.92S86.76,6.87,91,6.92s1.72,3.56,2.62,5C93.23,14.35,95.39,17.55,90.44,17.25Z" style="fill:#282425"/></svg>